<svg width="16" height="16" viewBox="0 0 16 16" fill="none" xmlns="http://www.w3.org/2000/svg">
<path d="M1 1H15V15H1V1Z" fill="#F5DE19"/>
<path d="M10.404 11.9375C10.5235 12.1796 10.7089 12.3832 10.9389 12.5247C11.1688 12.6662 11.434 12.74 11.704 12.7375C12.249 12.7375 12.5975 12.465 12.5975 12.0875C12.5975 11.6375 12.2395 11.4765 11.6395 11.214L11.3105 11.073C10.3605 10.6685 9.73055 10.162 9.73055 9.09099C9.73055 8.10449 10.4805 7.35299 11.657 7.35299C12.0379 7.32555 12.4184 7.41082 12.7511 7.59816C13.0838 7.7855 13.354 8.06662 13.528 8.40649L12.4995 9.06399C12.4325 8.89549 12.3158 8.75134 12.165 8.65062C12.0142 8.5499 11.8364 8.49737 11.655 8.49999C11.5759 8.49207 11.496 8.50072 11.4204 8.52538C11.3448 8.55005 11.2752 8.59019 11.216 8.64325C11.1568 8.69631 11.1093 8.76112 11.0765 8.83356C11.0437 8.906 11.0263 8.98448 11.0255 9.06399C11.0255 9.45849 11.27 9.61849 11.8345 9.86399L12.1635 10.005C13.2815 10.4845 13.9135 10.973 13.9135 12.0715C13.9135 13.256 12.983 13.905 11.7335 13.905C11.2467 13.9357 10.7615 13.825 10.3361 13.5863C9.91073 13.3476 9.56344 12.991 9.33605 12.5595L10.404 11.9375ZM5.75655 12.0515C5.96305 12.418 6.15105 12.728 6.60305 12.728C7.03505 12.728 7.30805 12.559 7.30805 11.9015V7.42799H8.62355V11.919C8.62355 13.281 7.82355 13.901 6.65905 13.901C6.24742 13.9235 5.83862 13.8209 5.48639 13.6067C5.13416 13.3926 4.85497 13.0768 4.68555 12.701L5.75655 12.0515Z" fill="black"/>
</svg>
